<svg xmlns="http://www.w3.org/2000/svg" viewBox="0 0 100 100" fill="none">
  <!-- Hexagon Container -->
  <path d="M50 5 L93.3 30 V80 L50 95 L6.7 80 V30 Z" stroke="#2563EB" stroke-width="4" fill="white"/>
  
  <!-- Stylized U (Left side) -->
  <path d="M25 35 V60 C25 70 30 75 40 75" stroke="#2563EB" stroke-width="6" stroke-linecap="round"/>
  
  <!-- Stylized P (Right side) -->
  <path d="M60 75 V35 H70 C80 35 80 55 70 55 H60" stroke="#2563EB" stroke-width="6" stroke-linecap="round" stroke-linejoin="round"/>
  
  <!-- Connection Nodes (Tech feel) -->
  <circle cx="25" cy="35" r="3" fill="#2563EB"/>
  <circle cx="40" cy="75" r="3" fill="#2563EB"/>
  <circle cx="60" cy="35" r="3" fill="#2563EB"/>
  <circle cx="60" cy="75" r="3" fill="#2563EB"/>
  <circle cx="80" cy="45" r="3" fill="#2563EB"/>
  
  <!-- Connection Lines -->
  <line x1="25" y1="35" x2="40" y2="25" stroke="#60A5FA" stroke-width="2"/>
  <circle cx="40" cy="25" r="2" fill="#60A5FA"/>
  
  <line x1="60" y1="35" x2="75" y2="25" stroke="#60A5FA" stroke-width="2"/>
  <circle cx="75" cy="25" r="2" fill="#60A5FA"/>

  <line x1="40" y1="75" x2="60" y2="75" stroke="#60A5FA" stroke-width="2" stroke-dasharray="4 2"/>
</svg>
